<svg xmlns="http://www.w3.org/2000/svg" viewBox="0 0 32 32" fill="none">
  <rect width="32" height="32" rx="8" fill="url(#g)"/>
  <path d="M8 10.5c0-1.1.9-2 2-2h4.2c.6 0 1.1.2 1.5.6l.8.8c.4.4.9.6 1.5.6H22c1.1 0 2 .9 2 2v10c0 1.1-.9 2-2 2H10c-1.1 0-2-.9-2-2v-10z" fill="rgba(255,255,255,0.14)" stroke="#fff" stroke-width="1.2" stroke-linejoin="round"/>
  <path d="M16 10.5v14" stroke="#fff" stroke-width="1.1" stroke-linecap="round" opacity="0.55"/>
  <path d="M11.5 15h3M17.5 15h3M11.5 18.5h3M17.5 18.5h2.5" stroke="#c4b5fd" stroke-width="1.1" stroke-linecap="round"/>
  <circle cx="23.5" cy="11.5" r="2.2" fill="#22c55e"/>
  <defs>
    <linearGradient id="g" x1="4" y1="4" x2="28" y2="28" gradientUnits="userSpaceOnUse">
      <stop stop-color="#8b5cf6"/>
      <stop offset="1" stop-color="#d97706"/>
    </linearGradient>
  </defs>
</svg>
